<?xml version="1.0" encoding="UTF-8" standalone="no"?>
<svg
   xmlns:dc="http://purl.org/dc/elements/1.1/"
   xmlns:cc="http://creativecommons.org/ns#"
   xmlns:rdf="http://www.w3.org/1999/02/22-rdf-syntax-ns#"
   xmlns:svg="http://www.w3.org/2000/svg"
   xmlns="http://www.w3.org/2000/svg"
   id="svg3959"
   version="1.1"
   viewBox="0 0 10.03651 10.03651"
   height="10.03651mm"
   width="10.03651mm">
  <defs
     id="defs3953" />
  <metadata
     id="metadata3956">
    <rdf:RDF>
      <cc:Work
         rdf:about="">
        <dc:format>image/svg+xml</dc:format>
        <dc:type
           rdf:resource="http://purl.org/dc/dcmitype/StillImage" />
        <dc:title></dc:title>
      </cc:Work>
    </rdf:RDF>
  </metadata>
  <g
     transform="translate(-132.56508,-133.9877)"
     id="layer1">
    <g
       transform="matrix(0.35277777,0,0,0.35277777,132.56508,133.9877)"
       id="g490">
      <path
         id="path492"
         style="fill:#ffffff;fill-opacity:1;fill-rule:nonzero;stroke:none"
         d="M 14.224976,0 C 6.389184,0 0,6.389184 0,14.224976 c 0,7.83579 6.389184,14.224975 14.224976,14.224975 7.83579,0 14.224975,-6.389185 14.224975,-14.224975 C 28.449951,6.389185 22.060766,0 14.224976,0 Z m 3.013765,22.060766 c -0.723305,0.241101 -1.326058,0.482201 -1.808259,0.602751 -0.361652,0.241104 -0.964407,0.241104 -1.446608,0.241104 -0.843855,0 -1.567158,-0.241104 -2.049361,-0.602754 -0.482201,-0.361651 -0.723304,-0.964404 -0.723304,-1.687708 0,-0.241103 0,-0.482203 0,-0.843855 0,-0.241102 0.120551,-0.602755 0.120551,-0.964405 l 0.964405,-3.254867 c 0.120552,-0.361653 0.120552,-0.602755 0.241102,-0.843856 0,-0.241101 0.120551,-0.4822 0.120551,-0.723304 0,-0.361651 -0.120551,-0.723303 -0.241101,-0.843854 -0.120552,-0.120551 -0.482202,-0.241101 -0.964405,-0.241101 -0.241102,0 -0.482202,0 -0.723304,0.120552 -0.361654,0.120549 -0.602756,0.241101 -0.723305,0.241101 l 0.241101,-0.964405 c 0.602753,-0.241102 1.084954,-0.482203 1.687708,-0.602754 0.602754,-0.12055 1.084955,-0.2411 1.567159,-0.2411 0.843855,0 1.567159,0.2411 2.049361,0.602752 0.482202,0.482203 0.723304,0.964406 0.723304,1.687709 0,0.12055 0,0.361651 0,0.723303 0,0.361653 -0.120552,0.723306 -0.241102,0.964407 l -0.964404,3.254867 c -0.120553,0.2411 -0.120553,0.602752 -0.241102,0.843854 0,0.361651 -0.120552,0.602753 -0.120552,0.723305 0,0.482201 0.120552,0.723305 0.241101,0.843855 0.241102,0.12055 0.482203,0.241102 0.964406,0.241102 0.241101,0 0.482203,0 0.723303,-0.120552 0.241103,-0.12055 0.482203,-0.12055 0.602755,-0.2411 z m -0.2411,-13.1400192 c -0.482205,0.3616514 -0.964407,0.6027536 -1.567159,0.6027536 -0.602754,0 -1.084956,-0.2411022 -1.56716,-0.6027536 C 13.501671,8.5590944 13.26057,8.0768919 13.26057,7.4741387 c 0,-0.6027526 0.241101,-1.0849552 0.602752,-1.4466071 0.482204,-0.3616524 0.964406,-0.6027531 1.56716,-0.6027531 0.602752,0 1.084954,0.2411007 1.567159,0.6027531 0.482202,0.3616524 0.60275,0.8438545 0.60275,1.4466071 0.120552,0.6027532 -0.120548,1.0849557 -0.60275,1.4466081 z" />
    </g>
  </g>
</svg>
