<?xml version="1.0" encoding="UTF-8" standalone="no"?>
<svg
   xmlns:dc="http://purl.org/dc/elements/1.1/"
   xmlns:cc="http://creativecommons.org/ns#"
   xmlns:rdf="http://www.w3.org/1999/02/22-rdf-syntax-ns#"
   xmlns:svg="http://www.w3.org/2000/svg"
   xmlns="http://www.w3.org/2000/svg"
   id="svg4566"
   version="1.1"
   viewBox="0 0 6.3499999 6.3499999"
   height="6.3499999mm"
   width="6.3499999mm">
  <defs
     id="defs4560" />
  <metadata
     id="metadata4563">
    <rdf:RDF>
      <cc:Work
         rdf:about="">
        <dc:format>image/svg+xml</dc:format>
        <dc:type
           rdf:resource="http://purl.org/dc/dcmitype/StillImage" />
        <dc:title></dc:title>
      </cc:Work>
    </rdf:RDF>
  </metadata>
  <g
     transform="matrix(0.76271189,0,0,0.76271189,-63.130995,-3.6757871)"
     id="layer1">
    <g
       transform="matrix(0.35277777,0,0,0.35277777,82.771746,4.8193652)"
       id="g486">
      <path
         id="path488"
         style="fill:#003366;fill-opacity:1;fill-rule:nonzero;stroke:none"
         d="M 11.8,0 C 5.3000002,0 0,5.3000002 0,11.8 0,18.299999 5.3000002,23.6 11.8,23.6 18.299999,23.6 23.6,18.299999 23.6,11.8 23.6,5.3000011 18.299999,0 11.8,0 Z m 2.5,18.299999 c -0.6,0.200001 -1.1,0.4 -1.5,0.5 C 12.5,19 12,19 11.6,19 10.900001,19 10.3,18.799999 9.9000006,18.5 9.500001,18.200001 9.3000002,17.700001 9.3000002,17.1 c 0,-0.2 0,-0.399999 0,-0.7 0,-0.200001 0.1000004,-0.5 0.1000004,-0.800001 L 10.200001,12.9 c 0.1,-0.300001 0.1,-0.5 0.2,-0.7 0,-0.2 0.1,-0.4 0.1,-0.600001 0,-0.3 -0.1,-0.6 -0.2,-0.699999 -0.1,-0.100001 -0.3999995,-0.2 -0.8,-0.2 -0.1999999,0 -0.3999997,0 -0.6000004,0.1 C 8.6000004,10.9 8.3999996,11 8.3000002,11 L 8.5,10.2 C 9,10 9.3999996,9.8000002 9.8999996,9.6999998 10.4,9.5999994 10.799999,9.5 11.2,9.5 c 0.7,0 1.3,0.1999998 1.7,0.5 0.399999,0.4 0.6,0.8 0.6,1.4 0,0.1 0,0.3 0,0.6 0,0.3 -0.1,0.6 -0.2,0.8 l -0.8,2.7 c -0.1,0.2 -0.1,0.5 -0.2,0.700001 0,0.299999 -0.1,0.5 -0.1,0.6 0,0.4 0.1,0.600001 0.2,0.700001 0.199999,0.1 0.399999,0.200001 0.8,0.200001 0.2,0 0.399999,0 0.6,-0.100001 0.2,-0.1 0.4,-0.1 0.5,-0.2 z M 14.1,7.4000001 c -0.399999,0.3000002 -0.8,0.5 -1.3,0.5 -0.5,0 -0.899999,-0.1999998 -1.3,-0.5 C 11.2,7.0999999 11,6.6999998 11,6.1999998 11,5.6999998 11.2,5.2999997 11.5,5 c 0.4,-0.3000002 0.8,-0.5 1.3,-0.5 0.5,0 0.9,0.1999998 1.3,0.5 0.4,0.3000002 0.5,0.6999998 0.5,1.1999998 0.1,0.5 -0.1,0.9000001 -0.5,1.2000003 z" />
    </g>
  </g>
</svg>
